<svg xmlns="http://www.w3.org/2000/svg" width="206" height="192" viewBox="0 0 206 192">
    <style>.a{fill:currentColor;}.b{fill:none;}</style>
    <title>Serfhos.com</title>
    <g transform="translate(3 2)">
        <g opacity="0.5">
            <polygon points="131.6 2 88.3 55.5 93.4 57.1 135.5 5.1" class="a"/>
        </g>
        <path d="M159.2 91.2c0.1-2.4-3.3-11.4-51.8-24.5-7.8-2.1-15.6-4-22.8-5.7-1.9-0.4-3.7-0.8-5.4-1.2l-47 58.1c2.3-0.2 4.6-0.4 6.9-0.6C146.5 108.2 158.9 96 159.2 91.2z"
              class="a"/>
        <path d="M98 59c0.1 0 0.2 0 0.2 0.1 1.5 0.4 3.1 0.8 4.7 1.2 0.3 0.1 0.7 0.2 1 0.3 1.6 0.4 3.1 0.8 4.7 1.2 21.4 5.8 49.1 14.5 54.6 25.4 0.7 1.4 1.1 2.8 1 4.2-0.3 6.2-7.6 11.3-22.8 15.8-2.6 0.8-5.4 1.5-8.5 2.3-21.2 5.1-61 10.3-105.2 14l0 0-3.8 4.7 5.8-0.4c95.2-7.2 140.2-18.1 141.4-34.5 0.7-9.5-13-19.1-41.8-29.2-15.5-5.4-30.9-9.5-37.9-11.2l40.9-50.5 0 0-3.9-3.1-45.5 56.3c1.8 0.4 3.6 0.8 5.4 1.2l0 0c0 0 0 0 0 0"
              class="a"/>
        <path d="M131.9 184.8c-0.7-0.5-1.4-0.8-2.3-0.8-0.9 0-1.7 0.3-2.3 0.8-0.7 0.6-1 1.2-1 2 0 0.8 0.3 1.5 1 2 0.6 0.5 1.4 0.8 2.3 0.8 0.9 0 1.7-0.3 2.3-0.8 0.7-0.5 1-1.2 1-2C133 186 132.6 185.3 131.9 184.8z"
              class="a"/>
        <path d="M141 178.9c2.2-1.7 5.4-1.6 8.7 0.2l0.7 0.4v-4.5l-0.3-0.1c-1.8-0.7-3.5-1.1-5.2-1.1-2.8 0-5.2 0.8-7.1 2.3-1.9 1.5-2.9 3.5-2.9 5.9 0 2.1 1 3.9 2.9 5.5 1.9 1.5 4.1 2.3 6.6 2.3 1.8 0 3.7-0.5 5.7-1.3l0.3-0.1v-4.6l-0.7 0.4c-1.9 1.1-3.7 1.7-5.2 1.7-1.4 0-2.6-0.4-3.6-1.2-1-0.8-1.4-1.8-1.4-2.9C139.5 180.5 140 179.6 141 178.9z"
              class="a"/>
        <path d="M168.7 176.1c-2-1.5-4.3-2.3-6.9-2.3-2.5 0-4.8 0.8-6.8 2.4-2 1.6-3 3.5-3 5.6 0 2.2 1 4.1 3 5.7 2 1.6 4.3 2.4 7 2.4 2.5 0 4.8-0.8 6.7-2.4 1.9-1.6 2.9-3.5 2.9-5.6C171.7 179.5 170.7 177.6 168.7 176.1zM167.2 181.7c0 1.1-0.5 2-1.5 2.8-1 0.8-2.3 1.3-3.7 1.3-1.4 0-2.7-0.4-3.8-1.2-1-0.8-1.5-1.7-1.5-2.7 0-1.1 0.5-2 1.5-2.8 1.1-0.8 2.3-1.2 3.8-1.2 1.4 0 2.7 0.4 3.7 1.2C166.7 179.7 167.2 180.6 167.2 181.7z"
              class="a"/>
        <path d="M198.2 175.1c-1.1-0.9-2.4-1.4-3.9-1.4-1.2 0-2.3 0.3-3.2 0.8-0.8 0.4-1.5 1-2.3 1.8-0.5-0.8-1.1-1.4-1.7-1.8-0.8-0.5-2-0.8-3.4-0.8-1.1 0-2.1 0.2-2.9 0.7-0.6 0.3-1.1 0.7-1.7 1.2v-1.5h-4.6V188.8h0.5v0.5h4.2v-8.5c0-1 0.3-1.8 1-2.4 0.7-0.7 1.5-1 2.5-1 1.6 0 2.3 0.7 2.3 2.3v9.6h4.7v-8.2c0-1.1 0.3-1.9 1-2.6 0.7-0.7 1.4-1 2.4-1 2.1 0 2.4 1 2.4 1.9v10h4.7V178.5C199.8 177.2 199.3 176.1 198.2 175.1z"
              class="a"/>
        <path d="M6.5 189.7c-2.7 0-4.9-1-6.6-3l-0.5-0.5 3.9-1.5 0.2 0.2c0.9 0.7 1.9 1.1 2.9 1.1 0.7 0 1.3-0.1 1.8-0.4 0.6-0.4 0.6-0.7 0.6-0.8 0-0.3-0.3-0.9-2.7-1.7-2.1-0.7-3.6-1.4-4.4-2.1-0.9-0.8-1.4-1.7-1.4-2.8 0-1.4 0.6-2.5 1.9-3.4 1.2-0.9 2.7-1.3 4.5-1.3 1.8 0 3.7 0.7 5.9 2.2l0.6 0.4-3.3 2.4-0.3-0.2c-0.7-0.4-1.2-0.7-1.6-0.8-0.4-0.2-0.9-0.3-1.5-0.3-1.8 0-1.8 0.7-1.8 0.9 0 0.1 0.1 0.6 2.6 1.4 2 0.6 3.5 1.3 4.4 2.1 1 0.8 1.4 1.9 1.4 3 0 1.4-0.7 2.6-2 3.6C9.8 189.2 8.3 189.7 6.5 189.7zM1.2 186.6c1.4 1.4 3.2 2.1 5.3 2.1 1.5 0 2.9-0.4 4-1.3 1.1-0.8 1.6-1.7 1.6-2.8 0-0.9-0.4-1.6-1.1-2.3-0.8-0.7-2.1-1.3-4-1.9-2.2-0.7-3.2-1.5-3.2-2.4 0-0.7 0.4-1.9 2.8-1.9 0.7 0 1.3 0.1 1.9 0.3 0.4 0.2 0.9 0.4 1.5 0.7l1.6-1.2c-1.8-1.1-3.3-1.6-4.8-1.6-1.6 0-2.9 0.4-3.9 1.1-1 0.7-1.5 1.6-1.5 2.6 0 0.8 0.3 1.5 1 2.1 0.7 0.6 2.1 1.2 4.1 1.9 2.3 0.7 3.4 1.6 3.4 2.7 0 0.6-0.4 1.2-1.1 1.6-0.6 0.4-1.4 0.6-2.3 0.6-1.1 0-2.3-0.4-3.3-1.2L1.2 186.6z"
              class="a"/>
        <path d="M25 189.7c-2.7 0-5.1-0.8-7-2.3-1.9-1.6-2.9-3.5-2.9-5.9 0-2.2 1-4.1 2.9-5.7 1.9-1.6 4.2-2.4 6.9-2.4 2.7 0 5 0.8 6.9 2.4 1.9 1.6 2.9 3.7 2.9 6.3l0 0.5h-15c0.4 1 1 1.8 1.9 2.3 1.1 0.6 2.3 1 3.6 1 2 0 3.6-0.7 5-2l0.3-0.3 3.6 2.2-0.4 0.4C31.4 188.5 28.5 189.7 25 189.7zM24.9 174.4c-2.5 0-4.6 0.7-6.3 2.1-1.7 1.4-2.5 3-2.5 4.9 0 2 0.8 3.7 2.5 5.1 1.7 1.4 3.8 2.1 6.3 2.1 3 0 5.5-0.9 7.5-2.6l-1.9-1.1c-1.5 1.4-3.3 2-5.4 2-1.5 0-2.8-0.4-4.1-1.1-1.3-0.7-2.1-1.9-2.5-3.6l-0.1-0.6h15.3c-0.1-2.1-0.9-3.7-2.5-5.1C29.5 175.1 27.4 174.4 24.9 174.4zM31.2 180.2H18.6l0.4-0.7c1.2-2.1 3.2-3.2 6-3.2 2.5 0 4.5 1.1 5.8 3.2L31.2 180.2zM20.3 179.2h9c-1.1-1.3-2.5-2-4.4-2C22.9 177.2 21.4 177.9 20.3 179.2z"
              class="a"/>
        <path d="M43.3 189.3h-4.7v-15.5h4.7v2c0.6-0.6 1.1-1.2 1.7-1.5 0.9-0.6 2-0.9 3.4-0.9 0.4 0 0.9 0.1 1.7 0.2l0.6 0.1-1.5 4-0.4-0.1c-0.9-0.1-1.2-0.2-1.3-0.2-1.2 0-2.1 0.3-2.9 1-0.7 0.6-1.1 1.4-1.1 2.3v8.5H43.3zM39.6 188.3h2.8v-7.5c0-1.2 0.5-2.3 1.5-3.1 0.9-0.8 2.1-1.2 3.5-1.2 0.3 0 0.7 0.1 1.1 0.1l0.8-2.1c-0.4-0.1-0.7-0.1-0.9-0.1-1.2 0-2.1 0.2-2.8 0.7-0.8 0.5-1.5 1.3-2.3 2.5l-0.9 1.3v-4.1h-2.6V188.3z"
              class="a"/>
        <path d="M59.6 189.3H54.8V177.6h-3.3v-3.8h3.3v-2.9c0-1.8 0.6-3.2 1.7-4.3 1.1-1.1 2.7-1.6 4.5-1.6h0c1 0 2 0.3 3.2 0.8l0.3 0.1v4.3l-0.7-0.4c-1.7-0.9-3.1-1.1-3.8-0.4-0.3 0.3-0.4 0.7-0.4 1.3v3.1h4.9v3.8h-4.9L59.6 189.3 59.6 189.3zM55.8 188.3h2.8V176.6h4.9v-1.8h-4.9v-4.1c0-0.8 0.2-1.5 0.7-2 0.9-0.9 2.4-1 4.2-0.2v-2c-0.9-0.4-1.7-0.6-2.4-0.6-1.7 0-2.9 0.4-3.9 1.3-0.9 0.9-1.4 2.1-1.4 3.6v3.9h-3.3v1.8h3.3L55.8 188.3 55.8 188.3z"
              class="a"/>
        <path d="M71.4 189.3h-4.7v-23.8h4.7v10.1c0.8-0.6 1.5-1.1 2.2-1.5 1-0.5 2.1-0.7 3.5-0.7 1.6 0 3.1 0.5 4.2 1.5 1.2 1 1.8 2.3 1.8 3.8V189.3H78.4v-9.7c0-0.8-0.2-1.4-0.7-1.8-0.5-0.5-1.1-0.7-1.9-0.7-1.2 0-2.3 0.4-3.1 1.1-0.8 0.7-1.3 1.6-1.3 2.6V189.3zM67.7 188.3h2.8v-7.5c0-1.3 0.5-2.5 1.6-3.4 1-0.9 2.3-1.4 3.8-1.4 1.1 0 1.9 0.3 2.6 1 0.7 0.6 1 1.5 1 2.5v8.7h2.8v-9.6c0-1.2-0.5-2.2-1.5-3-1-0.9-2.2-1.3-3.6-1.3-1.2 0-2.2 0.2-3.1 0.6-0.9 0.4-1.8 1.1-2.8 2l-0.8 0.8v-11.3h-2.7V188.3z"
              class="a"/>
        <path d="M96.1 189.7c-2.7 0-5.1-0.8-7.2-2.4-2.1-1.6-3.1-3.6-3.1-5.8 0-2.1 1-4 3.1-5.7 2-1.6 4.3-2.4 6.9-2.4 2.7 0 5 0.8 7 2.4 2 1.6 3.1 3.5 3.1 5.7 0 2.2-1 4.1-3 5.8C100.9 188.9 98.6 189.7 96.1 189.7zM95.8 174.4c-2.4 0-4.5 0.7-6.3 2.2-1.8 1.5-2.7 3-2.7 4.9 0 1.9 0.9 3.6 2.7 5 1.8 1.5 4 2.2 6.5 2.2 2.3 0 4.4-0.7 6.2-2.2 1.8-1.5 2.6-3.1 2.6-5 0-1.9-0.9-3.5-2.7-4.9C100.4 175.1 98.2 174.4 95.8 174.4zM95.9 186.7c-1.7 0-3.2-0.5-4.5-1.5-1.3-1-2-2.2-2-3.6 0-1.4 0.7-2.7 2-3.7 1.3-1 2.8-1.5 4.5-1.5 1.7 0 3.2 0.5 4.4 1.5 1.3 1 1.9 2.2 1.9 3.6 0 1.4-0.6 2.6-1.9 3.7C99.1 186.2 97.6 186.7 95.9 186.7zM95.9 177.5c-1.5 0-2.8 0.4-3.9 1.3-1.1 0.8-1.6 1.8-1.6 2.9 0 1.1 0.5 2 1.6 2.8 1.1 0.9 2.4 1.3 3.9 1.3 1.4 0 2.7-0.4 3.8-1.3 1-0.9 1.6-1.8 1.6-2.9 0-1.1-0.5-2-1.5-2.8C98.7 177.9 97.4 177.5 95.9 177.5z"
              class="a"/>
        <path d="M114.2 189.7c-2.7 0-4.9-1-6.6-3l-0.5-0.5 3.9-1.5 0.2 0.2c1 0.8 1.9 1.1 2.9 1.1 0.7 0 1.3-0.1 1.8-0.4 0.6-0.4 0.6-0.7 0.6-0.8 0-0.3-0.3-0.9-2.7-1.7-2.1-0.6-3.6-1.3-4.4-2.1-0.9-0.8-1.4-1.7-1.4-2.8 0-1.4 0.6-2.5 1.9-3.4 1.2-0.9 2.7-1.3 4.5-1.3 1.8 0 3.8 0.7 5.9 2.2l0.6 0.4-3.3 2.4-0.3-0.2c-0.7-0.4-1.2-0.7-1.6-0.8-0.4-0.2-0.9-0.3-1.5-0.3-1.8 0-1.8 0.7-1.8 0.9 0 0.1 0.1 0.6 2.6 1.4 2 0.7 3.5 1.4 4.4 2.1 1 0.8 1.4 1.9 1.4 3 0 1.4-0.7 2.6-2 3.6C117.5 189.2 116 189.7 114.2 189.7zM108.9 186.6c1.4 1.4 3.2 2.1 5.3 2.1 1.5 0 2.9-0.4 4-1.3 1.1-0.8 1.6-1.7 1.6-2.8 0-0.9-0.4-1.6-1.1-2.3-0.8-0.7-2.1-1.3-4-1.9-2.2-0.7-3.2-1.5-3.2-2.4 0-0.7 0.4-1.9 2.8-1.9 0.7 0 1.3 0.1 1.9 0.3 0.4 0.2 0.9 0.4 1.5 0.7l1.6-1.2c-1.8-1.1-3.4-1.6-4.8-1.6-1.6 0-2.9 0.4-3.9 1.1-1 0.7-1.5 1.6-1.5 2.6 0 0.8 0.3 1.5 1 2.1 0.8 0.6 2.1 1.3 4.1 1.9 2.3 0.7 3.4 1.6 3.4 2.7 0 0.6-0.4 1.2-1.1 1.6-0.6 0.4-1.4 0.6-2.3 0.6-1.1 0-2.3-0.4-3.3-1.2L108.9 186.6z"
              class="a"/>
        <rect x="0.2" y="152.3" width="200.3" height="5" class="a"/>
    </g>
</svg>
