<?xml version="1.0" encoding="utf-8"?>
<!-- Generator: Adobe Illustrator 16.0.4, SVG Export Plug-In . SVG Version: 6.00 Build 0)  -->
<!DOCTYPE svg PUBLIC "-//W3C//DTD SVG 1.1//EN" "http://www.w3.org/Graphics/SVG/1.1/DTD/svg11.dtd">
<svg version="1.1" id="Layer_1" xmlns="http://www.w3.org/2000/svg" xmlns:xlink="http://www.w3.org/1999/xlink" x="0px" y="0px"
     width="206px" height="192px" viewBox="0 0 206 192" enable-background="new 0 0 206 192" xml:space="preserve">
<title>Serfhos.com</title>
<g fill="#24B2A0">
    <g id="logo" transform="translate(27.000000, 0.000000)">
        <g>
            <g transform="translate(8 3)" opacity="0.5">
                <polygon points="100.3 0.3 56.9 53.9 62.1 55.4 104.2 3.4"/>
                <path d="M127.8 89.5C127.9 87.1 124.5 78.1 76 65 68.2 62.9 60.4 61 53.2 59.3 51.3 58.9 49.5 58.5 47.8 58.1L0.8 116.2C3.1 116 5.4 115.8 7.7 115.6 115.1 106.5 127.6 94.4 127.8 89.5L127.8 89.5Z"/>
            </g>
            <path d="M74.7 60.4C74.8 60.4 74.9 60.4 74.9 60.5 76.4 60.9 78 61.3 79.6 61.7 79.9 61.8 80.3 61.9 80.6 62 82.2 62.4 83.7 62.8 85.3 63.2 106.7 69 134.4 77.7 139.9 88.6 140.6 90 141 91.4 140.9 92.8 140.6 99 133.3 104.1 118.1 108.6 115.5 109.4 112.7 110.1 109.6 110.9 88.4 116 48.6 121.2 4.4 124.9L4.4 124.9 0.6 129.6 6.4 129.2C101.6 122 146.6 111.1 147.8 94.7 148.5 85.2 134.8 75.6 106 65.5 90.5 60.1 75.1 56 68.1 54.3L109 3.8 109 3.8 105.1 0.7 59.3 56.7C61.1 57.1 62.9 57.5 64.7 57.9L64.7 57.9 64.7 57.9"/>
        </g>
    </g>
    <g id="divider">
        <rect x="0.22" y="152.33" width="200.28" height="5"/>
    </g>
    <g id="text">
        <path d="M6.52,189.71c-2.655,0-4.866-1.015-6.57-3.017l-0.455-0.533l3.88-1.521l0.225,0.178
            c0.945,0.744,1.931,1.123,2.93,1.123c0.7,0,1.282-0.146,1.782-0.447c0.628-0.368,0.628-0.672,0.628-0.771
            c0-0.253-0.264-0.925-2.712-1.703c-2.139-0.683-3.582-1.354-4.411-2.056c-0.9-0.762-1.357-1.711-1.357-2.821
            c0-1.357,0.631-2.507,1.875-3.414c1.206-0.86,2.717-1.297,4.495-1.297c1.782,0,3.718,0.723,5.919,2.205l0.597,0.402l-3.345,2.396
            l-0.278-0.158c-0.695-0.395-1.209-0.654-1.621-0.82c-0.416-0.169-0.918-0.254-1.493-0.254c-1.79,0-1.79,0.654-1.79,0.869
            c0,0.062,0.072,0.637,2.554,1.436c2.029,0.646,3.454,1.344,4.354,2.128c0.957,0.833,1.442,1.854,1.442,3.037
            c0,1.37-0.684,2.575-2.031,3.58C9.841,189.219,8.287,189.71,6.52,189.71z M1.193,186.568c1.44,1.438,3.19,2.142,5.327,2.142
            c1.546,0,2.899-0.424,4.021-1.261c1.096-0.818,1.629-1.727,1.629-2.779c0-0.893-0.359-1.641-1.098-2.283
            c-0.785-0.684-2.132-1.332-4.003-1.93c-2.247-0.725-3.249-1.459-3.249-2.387c0-0.698,0.362-1.87,2.79-1.87
            c0.704,0,1.333,0.11,1.868,0.325c0.394,0.16,0.862,0.392,1.46,0.723l1.645-1.178c-1.776-1.104-3.336-1.641-4.752-1.641
            c-1.587,0-2.866,0.361-3.91,1.106c-0.981,0.716-1.46,1.567-1.46,2.604c0,0.812,0.328,1.485,1.003,2.058
            c0.716,0.606,2.085,1.233,4.069,1.864c2.325,0.74,3.408,1.586,3.408,2.658c0,0.646-0.376,1.195-1.117,1.631
            c-0.645,0.389-1.418,0.588-2.293,0.588c-1.146,0-2.26-0.392-3.318-1.162L1.193,186.568z"/>

        <path d="M24.95,189.68c-2.745,0-5.089-0.781-6.968-2.322c-1.9-1.569-2.862-3.547-2.862-5.877
            c0-2.195,0.973-4.114,2.891-5.705c1.894-1.568,4.225-2.364,6.929-2.364c2.669,0,4.991,0.81,6.901,2.405
            c1.932,1.615,2.901,3.748,2.879,6.338l-0.004,0.496h-15.03c0.351,1.043,0.961,1.804,1.853,2.316
            c1.089,0.633,2.293,0.953,3.581,0.953c2.007,0,3.642-0.658,4.997-2.014l0.279-0.279l3.604,2.21l-0.427,0.447
            C31.423,188.537,28.522,189.68,24.95,189.68z M24.94,174.41c-2.465,0-4.582,0.719-6.291,2.135
            c-1.702,1.41-2.529,3.023-2.529,4.936c0,2.047,0.817,3.717,2.498,5.104c1.693,1.39,3.824,2.095,6.332,2.095
            c3.045,0,5.549-0.891,7.454-2.647l-1.867-1.146c-1.481,1.35-3.302,2.033-5.417,2.033c-1.466,0-2.839-0.365-4.081-1.087
            c-1.294-0.745-2.135-1.948-2.497-3.574l-0.136-0.608h15.305c-0.096-2.074-0.921-3.735-2.512-5.065
            C29.45,175.121,27.403,174.41,24.94,174.41z M31.179,180.21H18.557l0.417-0.744c1.204-2.146,3.21-3.235,5.966-3.235
            c2.534,0,4.478,1.084,5.777,3.221L31.179,180.21z M20.339,179.21h8.991c-1.08-1.33-2.524-1.979-4.39-1.979
            C22.892,177.23,21.377,177.88,20.339,179.21z"/>

        <path d="M43.32,189.29h-4.75v-15.46h4.65v2.013c0.557-0.647,1.116-1.163,1.67-1.536
                c0.887-0.589,2.029-0.887,3.399-0.887c0.4,0,0.94,0.072,1.652,0.221l0.57,0.118l-1.488,3.981l-0.406-0.067
                c-0.891-0.147-1.233-0.163-1.339-0.163c-1.158,0-2.092,0.314-2.856,0.963c-0.743,0.622-1.104,1.377-1.104,2.307v8.511H43.32z
                 M39.57,188.29h2.75v-7.511c0-1.229,0.491-2.262,1.459-3.072c0.938-0.794,2.116-1.197,3.501-1.197
                c0.266,0,0.693,0.053,1.095,0.112l0.789-2.111c-0.439-0.071-0.711-0.091-0.874-0.091c-1.17,0-2.126,0.241-2.844,0.719
                c-0.752,0.506-1.533,1.334-2.316,2.459l-0.91,1.305v-4.071h-2.65V188.29z"/>

        <path d="M59.55,189.311H54.8V177.63h-3.28v-3.79h3.28v-2.91c0-1.781,0.578-3.229,1.717-4.304
            c1.131-1.065,2.653-1.606,4.523-1.606h0.001c0.975,0,1.991,0.262,3.157,0.797l0.292,0.134v4.256l-0.741-0.407
            c-1.722-0.947-3.119-1.088-3.777-0.394c-0.283,0.307-0.423,0.737-0.423,1.315v3.119h4.94v3.79h-4.94L59.55,189.311L59.55,189.311
            z M55.8,188.311h2.75V176.63h4.94v-1.79h-4.94v-4.119c0-0.83,0.233-1.503,0.693-2c0.883-0.933,2.409-0.998,4.248-0.171v-1.954
            c-0.9-0.383-1.707-0.576-2.401-0.576c-1.656,0-2.947,0.449-3.886,1.336c-0.931,0.877-1.403,2.08-1.403,3.574v3.91h-3.28v1.79
            h3.28L55.8,188.311L55.8,188.311z"/>

        <path d="M71.41,189.32h-4.75v-23.78h4.73v10.053c0.766-0.634,1.485-1.112,2.181-1.452
            c0.966-0.472,2.146-0.711,3.509-0.711c1.628,0,3.056,0.516,4.245,1.53c1.211,1.034,1.825,2.3,1.825,3.761V189.3H78.4v-9.72
            c0-0.779-0.228-1.378-0.697-1.829c-0.474-0.458-1.096-0.681-1.903-0.681c-1.222,0-2.275,0.379-3.131,1.127
            c-0.848,0.732-1.259,1.597-1.259,2.643V189.32z M67.66,188.32h2.75v-7.48c0-1.335,0.539-2.479,1.603-3.396
            c1.042-0.91,2.316-1.373,3.787-1.373c1.064,0,1.938,0.324,2.598,0.962c0.665,0.64,1.002,1.498,1.002,2.549v8.72h2.75v-9.578
            c0-1.173-0.482-2.154-1.475-3.002c-1.002-0.854-2.212-1.289-3.595-1.289c-1.209,0-2.243,0.205-3.071,0.608
            c-0.854,0.417-1.763,1.08-2.778,2.026l-0.841,0.783v-11.31h-2.73V188.32z"/>

        <path d="M96.08,189.689c-2.736,0-5.145-0.811-7.161-2.407c-2.056-1.611-3.1-3.558-3.1-5.782
            c0-2.124,1.032-4.027,3.068-5.66c2-1.605,4.33-2.42,6.922-2.42c2.662,0,5.024,0.801,7.019,2.377
            c2.031,1.605,3.062,3.525,3.062,5.703c0,2.174-1.008,4.109-2.992,5.755C100.939,188.871,98.646,189.689,96.08,189.689z
             M95.81,174.42c-2.359,0-4.478,0.74-6.297,2.2c-1.812,1.453-2.693,3.049-2.693,4.88c0,1.93,0.889,3.562,2.719,4.997
            c1.836,1.455,4.037,2.192,6.542,2.192c2.327,0,4.407-0.742,6.183-2.205c1.769-1.467,2.629-3.098,2.629-4.984
            c0-1.883-0.877-3.491-2.683-4.918C100.395,175.146,98.242,174.42,95.81,174.42z M95.94,186.689c-1.698,0-3.207-0.496-4.484-1.473
            c-1.312-1.015-1.976-2.225-1.976-3.598c0-1.428,0.657-2.665,1.951-3.684c1.266-0.986,2.782-1.486,4.509-1.486
            c1.696,0,3.18,0.494,4.411,1.469c1.272,0.995,1.918,2.204,1.918,3.591c0,1.392-0.649,2.626-1.934,3.668
            C99.073,186.182,97.596,186.689,95.94,186.689z M95.94,177.45c-1.499,0-2.808,0.429-3.892,1.274
            c-1.055,0.827-1.568,1.775-1.568,2.896c0,1.062,0.519,1.979,1.585,2.805c1.113,0.851,2.38,1.265,3.875,1.265
            c1.424,0,2.692-0.435,3.769-1.291c1.049-0.852,1.561-1.797,1.561-2.889c0-1.078-0.502-1.996-1.538-2.806
            C98.68,177.871,97.405,177.45,95.94,177.45z"/>

        <path d="M114.21,189.71c-2.655,0-4.866-1.015-6.571-3.017l-0.455-0.533l3.883-1.521l0.225,0.178
            c0.958,0.756,1.916,1.123,2.932,1.123c0.697,0,1.28-0.146,1.78-0.448c0.628-0.367,0.628-0.671,0.628-0.771
            c0-0.254-0.265-0.926-2.711-1.705c-2.072-0.648-3.557-1.341-4.408-2.053c-0.902-0.754-1.359-1.703-1.359-2.822
            c0-1.358,0.631-2.509,1.875-3.416c1.193-0.859,2.705-1.295,4.494-1.295c1.758,0,3.75,0.741,5.92,2.204l0.597,0.402l-3.345,2.396
            l-0.278-0.158c-0.694-0.395-1.21-0.654-1.62-0.819c-0.416-0.169-0.918-0.254-1.493-0.254c-1.79,0-1.79,0.655-1.79,0.87
            c0,0.062,0.071,0.636,2.555,1.435c2.035,0.653,3.461,1.351,4.354,2.128c0.957,0.833,1.441,1.854,1.441,3.037
            c0,1.371-0.685,2.575-2.031,3.58C117.531,189.219,115.979,189.71,114.21,189.71z M108.883,186.568
            c1.44,1.439,3.19,2.142,5.327,2.142c1.547,0,2.899-0.424,4.021-1.261c1.097-0.817,1.629-1.727,1.629-2.779
            c0-0.893-0.358-1.641-1.098-2.283c-0.777-0.678-2.125-1.326-4.004-1.93c-2.246-0.725-3.248-1.459-3.248-2.387
            c0-0.698,0.362-1.87,2.79-1.87c0.704,0,1.333,0.108,1.868,0.325c0.393,0.158,0.861,0.392,1.46,0.723l1.646-1.178
            c-1.762-1.09-3.357-1.641-4.754-1.641c-1.574,0-2.889,0.371-3.906,1.104c-0.982,0.717-1.463,1.569-1.463,2.604
            c0,0.821,0.328,1.493,1,2.057c0.752,0.628,2.121,1.256,4.07,1.865c2.326,0.741,3.409,1.586,3.409,2.658
            c0,0.647-0.376,1.196-1.116,1.631c-0.646,0.39-1.42,0.588-2.293,0.588c-1.146,0-2.262-0.391-3.318-1.162L108.883,186.568z"/>

        <path d="M131.943,184.771c-0.657-0.531-1.438-0.801-2.323-0.801c-0.902,0-1.688,0.271-2.343,0.805
             c-0.668,0.562-1.008,1.238-1.008,2.015c0,0.815,0.347,1.503,1.025,2.039c0.645,0.519,1.43,0.78,2.334,0.78
            c0.896,0,1.682-0.267,2.337-0.793c0.663-0.541,1.015-1.242,1.015-2.026C132.98,186.016,132.633,185.337,131.943,184.771z"/>

        <path d="M141.021,178.869c2.229-1.688,5.363-1.555,8.696,0.184l0.731,0.381v-4.492l-0.312-0.125
            c-1.754-0.707-3.498-1.065-5.188-1.065c-2.814,0-5.2,0.767-7.094,2.278c-1.914,1.533-2.887,3.502-2.887,5.852
            c0,2.081,0.975,3.928,2.895,5.489c1.89,1.532,4.121,2.312,6.636,2.312c1.836,0,3.741-0.453,5.661-1.348l0.289-0.135v-4.585
            l-0.746,0.422c-1.934,1.095-3.672,1.655-5.164,1.665c-1.441,0-2.622-0.403-3.607-1.233c-0.957-0.805-1.423-1.766-1.423-2.938
            C139.51,180.521,140.02,179.626,141.021,178.869z"/>

        <path d="M168.721,176.066c-1.964-1.543-4.277-2.326-6.881-2.326c-2.529,0-4.812,0.797-6.783,2.369
            c-1.994,1.604-3.007,3.471-3.007,5.551c0,2.183,1.022,4.089,3.04,5.66c1.971,1.564,4.33,2.359,7.01,2.359
            c2.522,0,4.773-0.803,6.69-2.386c1.944-1.614,2.931-3.515,2.931-5.646C171.721,179.521,170.711,177.645,168.721,176.066z
             M167.16,181.671c0,1.062-0.498,1.981-1.521,2.808c-1.049,0.838-2.287,1.262-3.679,1.262c-1.442,0-2.717-0.416-3.783-1.234
            c-1.04-0.809-1.547-1.703-1.547-2.736c0-1.097,0.5-2.021,1.527-2.826c1.056-0.824,2.335-1.242,3.803-1.242
            c1.444,0,2.655,0.398,3.701,1.222C166.67,179.719,167.16,180.617,167.16,181.671z"/>

        <path d="M198.15,175.127c-1.088-0.914-2.399-1.377-3.9-1.377c-1.211,0-2.295,0.256-3.223,0.764
            c-0.752,0.416-1.529,1.034-2.316,1.844c-0.493-0.799-1.079-1.414-1.748-1.832c-0.845-0.521-1.951-0.774-3.383-0.774
            c-1.104,0-2.089,0.229-2.926,0.681c-0.561,0.301-1.137,0.711-1.725,1.229v-1.51h-4.631V188.8h0.5v0.49h4.15v-8.479
            c0-0.969,0.339-1.791,1.008-2.441c0.674-0.656,1.509-0.988,2.48-0.988c1.599,0,2.312,0.703,2.312,2.28v9.63h4.67v-8.2
            c0-1.055,0.325-1.914,0.994-2.628c0.657-0.701,1.44-1.042,2.396-1.042c2.092,0,2.359,0.988,2.359,1.851v10.021h4.67V178.5
            C199.84,177.202,199.271,176.066,198.15,175.127z"/>
    </g>

</g>
</svg>
