<svg xmlns="http://www.w3.org/2000/svg" fill="none" viewBox="0 0 240 50">
    <g transform="translate(2,2)">
        <path fill="#E30613"
              d="M0 46h46.343V0H0v46Zm14.685-6.395c-2.341 0-4.236-1.881-4.236-4.205s1.895-4.205 4.236-4.205c2.341 0 4.236 1.881 4.236 4.205s-1.895 4.205-4.236 4.205Zm21.21-22.886c0 7.1-2.88 11.029-8.142 13.162l8.141 9.667H25.647l-7.038-8.339v-8.085h-8.141V20.91c0-8.958 5.407-14.52 14.114-14.52h3.171v8.086h-3.171c-2.95 0-5.973.767-5.973 6.434v2.214h3.157c3.584-.005 5.987-1.305 5.987-6.41v-2.243h8.141V16.72Z"></path>

        <g transform="translate(57,9)">
            <path fill="#E30613"
                  d="M7.746 17.465h-.758v11.572H0V0h12.29c6.399 0 10.396 3.675 10.396 8.732 0 4.218-2.903 7.564-7.62 8.482l8.251 11.823h-7.83L7.742 17.465h.004Zm-.758-4.928h5.091c2.356 0 3.745-1.211 3.745-3.216 0-2.004-1.389-3.215-3.745-3.215H6.99v6.435-.004ZM49.083 22.982v6.055H28.837V0h20.035v6.06H35.863v5.22H47.27v6.06H35.863v5.642h13.22ZM81.913 14.5c0 8.9-6.147 14.537-15.066 14.537H55.23V0h11.617c8.923 0 15.066 5.596 15.066 14.496m-7.115.083c0-5.47-3.281-8.398-8.166-8.398h-4.376v16.671h4.376c4.88 0 8.166-2.923 8.166-8.273ZM104.435 29.037 94.123 15.794v13.243h-7.03V0h7.03v12.662L104.225 0h8.04l-11.242 14.166 11.41 14.871h-7.998ZM123.574 0h-7.03v29.037h7.03V0ZM166.876 0l-6.61 29.037h-8.335l-4.375-19.26-4.464 19.26h-8.247L128.193 0h6.947l3.955 20.764L143.727 0h7.615l4.632 20.848L159.929 0h6.947ZM178.484 0h-7.03v29.037h7.03V0Z"></path>
        </g>
    </g>
</svg>
