<?xml version="1.0" encoding="UTF-8" standalone="no"?>
<svg
   viewBox="0 0 900 650"
   version="1.1"
   id="svg198"
   sodipodi:docname="rsm.svg"
   width="900"
   height="650"
   inkscape:version="1.2.2 (b0a84865, 2022-12-01)"
   xmlns:inkscape="http://www.inkscape.org/namespaces/inkscape"
   xmlns:sodipodi="http://sodipodi.sourceforge.net/DTD/sodipodi-0.dtd"
   xmlns="http://www.w3.org/2000/svg"
   xmlns:svg="http://www.w3.org/2000/svg"
   xmlns:rdf="http://www.w3.org/1999/02/22-rdf-syntax-ns#"
   xmlns:cc="http://creativecommons.org/ns#"
   xmlns:dc="http://purl.org/dc/elements/1.1/">
  <defs
     id="defs202" />
  <sodipodi:namedview
     id="namedview200"
     pagecolor="#ffffff"
     bordercolor="#666666"
     borderopacity="1.0"
     inkscape:showpageshadow="2"
     inkscape:pageopacity="0.0"
     inkscape:pagecheckerboard="0"
     inkscape:deskcolor="#d1d1d1"
     showgrid="false"
     inkscape:zoom="0.62267612"
     inkscape:cx="220.82106"
     inkscape:cy="386.23611"
     inkscape:window-width="1309"
     inkscape:window-height="699"
     inkscape:window-x="0"
     inkscape:window-y="38"
     inkscape:window-maximized="0"
     inkscape:current-layer="svg198" />
  <title
     id="title188">Rotterdam school of Management, Erasmus University compact logo</title>
  <g
     fill="#171c54"
     fill-rule="evenodd"
     id="g196"
     transform="matrix(4.1172926,0,0,4.1172926,35.265116,186.53545)">
    <path
       d="m 114,41.28 c -0.7,0 -5.15,1.8 -7.54,1.8 -0.77,0 -1.39,-0.3 -1.39,-0.83 0,-2.41 8.38,-6.16 8.38,-9 0,-2.52 -2.37,-3.26 -3.8,-3.26 -3.33,0 -6.7,1.92 -7.34,2.36 -0.66,0.46 0.56,2.62 1.4,2.24 0.78,-0.35 3.67,-1.98 5.24,-1.98 0.75,0 1.1,0.35 1.1,0.77 0,1.59 -8.77,5.95 -8.77,9.93 0,0.95 0.89,2.35 3.74,2.35 4.47,0 9.78,-2.03 9.78,-3.74 0,-0.29 -0.36,-0.64 -0.8,-0.64 m 36.6,-19.32 c 1.81,0 3.3,0.64 3.3,2.4 0,4.93 -6.48,-2.1 -13.68,20.68 -0.47,1.48 -0.93,3.1 -1.41,4.84 -0.16,0.57 -0.74,0.89 -1.47,0.89 -0.73,0 -1.71,-0.63 -1.71,-1.52 0,-1.35 1.95,-6.54 1.95,-8.2 0,-1 -0.47,-1.18 -0.8,-1.18 -1.22,0 -2.67,2.27 -5,2.27 -4.23,0 -3.68,-3.17 -5.43,-3.17 -2,0 -1.3,4.17 -4.66,4.17 -2.7,0 -3.97,-1.67 -3.97,-3.34 0,-3.64 5.52,-7.1 8.85,-7.1 2.47,0 2.9,1.7 3.14,3.41 l 0.06,0.38 c 0.22,1.57 0.4,3.03 2.04,3.03 1.95,0 11.01,-5.69 14.23,-14.43 a 5.2,5.2 0 0 1 4.57,-3.13 z M 124.12,35.9 c -1.11,0 -3.34,1.75 -3.34,3.05 0,0.33 0.12,0.5 0.6,0.5 1.03,0.01 3.42,-2.6 3.42,-3.08 0,-0.3 -0.29,-0.47 -0.68,-0.47 z"
       opacity="0.6"
       id="path190" />
    <path
       d="m 195.41,31.08 c -4.64,0 -4.9,2.6 -5.54,4.93 -0.7,2.55 -5.67,3.27 -8.39,3.27 -2.71,0 -2.68,-0.73 -3.25,-3.4 -0.55,-2.52 -1.64,-3.15 -3.09,-3.15 -1.06,0 -2.13,1 -3.33,2.06 -2.07,1.86 -4.1,4.38 -5.2,4.38 -0.93,0 -1.65,-1.06 -1.65,-2.11 0,-0.97 0.78,-1.37 0.78,-2.44 0,-0.75 -0.43,-2.22 -1.57,-2.22 -1.73,0 -4.44,2.9 -4.92,3.37 -1.42,1.36 -3.38,4.08 -5.4,4.08 -3.02,0 -0.27,-4.56 -3.89,-4.56 a 2.63,2.63 0 0 0 -2.64,2.47 c 0,1.38 0.93,2.13 1.95,3.19 1.15,1.2 2.03,2.23 3.6,2.23 4.7,0 5.76,-5 8.18,-5 0.8,0 1.18,0.72 1.26,1.4 0.22,1.7 2.1,2.5 4.28,2.5 4.13,0 4.21,-3.54 6.77,-3.54 3.47,0 2.83,3.98 6.7,3.98 1.54,0 1.78,-0.26 4.12,-0.55 2.83,-0.36 5.2,-0.53 6.5,-1.27 2.9,-1.69 1.38,-6.67 4.4,-6.67 1.04,0 1.82,0.67 1.82,2.32 0,2.04 -0.74,6.8 -11.24,12 -1.08,0.55 -1.82,1.23 -1.82,1.82 0,0.62 0.65,0.96 1.27,0.96 2.37,0 15.2,-6.69 15.2,-14.32 0,-4.39 -2,-5.73 -4.9,-5.73 M 100.06,9.12 c 3.8,0 8.89,1.31 8.89,-0.47 0,-2.36 -7.42,-2.73 -9.48,-2.73 -7.9,0 -22.52,5.08 -37.97,26.71 -10.54,2.91 -46.83,13.87 -46.83,22 0,1.66 2.56,4.01 6.27,4.01 1.77,0 3.11,-0.65 3.11,-1.61 0,-1.88 -4.6,-1.78 -4.6,-3.12 0,-3.64 21.17,-11.5 39.44,-16.83 -7.02,13.08 -3.11,29.37 13.47,29.37 7.87,0 15.72,-4.7 20.53,-7.55 0.93,-0.55 0.22,-1.93 -0.88,-1.38 -4.95,2.5 -11.34,5.66 -18.1,5.66 -17.8,0 -15.79,-17.27 -9.73,-27.6 5.27,-1.43 13.22,-3.3 21.55,-3.3 6.19,0 7.82,2.28 9.02,2.68 1.2,0.38 2.02,-0.56 1.25,-1.6 C 94.77,31.72 92.49,28.91 84.26,28.91 80.72,28.88 73.67,29.75 66.8,31.3 74.37,21.37 86.7,9.12 100.06,9.12"
       opacity="0.6"
       id="path192" />
    <path
       d="M 8.47,11.44 H 5 V 4.6 h 2.93 c 3.02,0 3.89,1.3 3.89,3.39 0,2.18 -1.29,3.45 -3.35,3.45 m 3.68,2.37 v -0.06 c 2.24,-0.93 3.58,-3.36 3.58,-5.98 0,-2.9 -1.34,-5 -3.47,-5.98 C 11.34,1.36 10.29,1.18 7.99,1.18 H 1.15 V 23.06 H 5 v -8.17 h 3.7 l 4.22,8.17 h 4.3 l -4.36,-8.17 a 5.39,5.39 0 0 0 -0.71,-1.08 m 25.72,9.06 z M 23.84,7 c 0,-1.51 1.44,-2.57 3.27,-2.57 A 7.93,7.93 0 0 1 31.9,6.3 l 1.7,-3.19 c 0,0 -2.18,-2.3 -6.45,-2.3 -4.15,0 -7.27,2.67 -7.27,6.25 0,6.6 10.23,5.93 10.23,9.78 0,1.76 -1.5,2.61 -3.14,2.61 -3.06,0 -5.4,-2.27 -5.4,-2.27 l -2.14,2.94 c 0,0 2.65,2.94 7.47,2.94 4.52,0 7.14,-2.88 7.14,-6.3 0,-6.89 -10.19,-5.95 -10.19,-9.77 M 54.4,1.18 50.16,11.99 c -0.49,1.3 -1.07,3.2 -1.07,3.2 h -0.06 c 0,0 -0.61,-1.9 -1.1,-3.2 L 43.67,1.18 h -4.21 l -1.77,21.88 h 3.94 L 42.55,10.82 C 42.64,9.37 42.58,7.4 42.58,7.4 h 0.06 c 0,0 0.67,2.16 1.19,3.42 l 3.48,8.48 h 3.45 l 3.5,-8.48 c 0.53,-1.26 1.17,-3.39 1.17,-3.39 h 0.06 c 0,0 -0.06,1.94 0.03,3.4 l 0.92,12.23 h 3.9 L 58.6,1.18 Z"
       id="path194" />
  </g>
  <metadata
     id="metadata204">
    <rdf:RDF>
      <cc:Work
         rdf:about="">
        <dc:title>Rotterdam school of Management, Erasmus University compact logo</dc:title>
      </cc:Work>
    </rdf:RDF>
  </metadata>
</svg>
