<?xml version="1.0" encoding="UTF-8" standalone="no"?>
<svg
   viewBox="0 0 900 650"
   version="1.1"
   id="svg13"
   sodipodi:docname="youwe.svg"
   width="900"
   height="650"
   inkscape:version="1.2.2 (b0a84865, 2022-12-01)"
   xmlns:inkscape="http://www.inkscape.org/namespaces/inkscape"
   xmlns:sodipodi="http://sodipodi.sourceforge.net/DTD/sodipodi-0.dtd"
   xmlns="http://www.w3.org/2000/svg"
   xmlns:svg="http://www.w3.org/2000/svg">
  <defs
     id="defs17" />
  <sodipodi:namedview
     id="namedview15"
     pagecolor="#ffffff"
     bordercolor="#666666"
     borderopacity="1.0"
     inkscape:showpageshadow="2"
     inkscape:pageopacity="0.0"
     inkscape:pagecheckerboard="0"
     inkscape:deskcolor="#d1d1d1"
     showgrid="false"
     inkscape:zoom="0.28329981"
     inkscape:cx="-1163.0788"
     inkscape:cy="303.56533"
     inkscape:window-width="1309"
     inkscape:window-height="456"
     inkscape:window-x="0"
     inkscape:window-y="38"
     inkscape:window-maximized="0"
     inkscape:current-layer="g125" />
  <g
     id="g125"
     transform="matrix(9.672131,0,0,9.672131,111.47541,30.000009)">
    <g
       id="g175"
       transform="matrix(0.88619856,0,0,0.88619856,3.9830509,3.4709438)">
      <path
         fill-rule="evenodd"
         clip-rule="evenodd"
         d="m 9.80594,48.4056 c -0.55108,0 -0.9469,0.316 -1.27388,0.8069 L 5.55559,53.5385 2.63113,49.2473 C 2.30454,48.7568 1.92593,48.4234 1.32398,48.4234 0.584739,48.4234 0,49.0017 0,49.7196 c 0,0.3856 0.137676,0.7013 0.32698,0.9635 l 3.88819,5.3778 v 3.4851 c 0,0.7535 0.58474,1.3492 1.32398,1.3492 0.74039,0 1.32551,-0.5957 1.32551,-1.3492 v -3.5377 l 3.88854,-5.3426 c 0.1702,-0.2448 0.3435,-0.5783 0.3435,-0.9461 0,-0.735 -0.4827,-1.314 -1.29076,-1.314 z m 12.55286,6.2887 c 0,2.1023 -1.4796,3.8185 -3.6128,3.8185 -2.134,0 -3.6469,-1.7514 -3.6469,-3.8537 V 54.625 c 0,-2.1027 1.4793,-3.8189 3.6129,-3.8189 2.1335,0 3.6468,1.7507 3.6468,3.853 z m -3.6128,-6.375 c -3.7157,0 -6.4172,2.8543 -6.4172,6.3398 v 0.0352 c 0,3.4859 2.6667,6.3057 6.3832,6.3057 3.7157,0 6.4172,-2.8546 6.4172,-6.3409 v -0.034 c 0,-3.4867 -2.6663,-6.3058 -6.3832,-6.3058 z m 18.2815,0.1049 c -0.7393,0 -1.3244,0.5956 -1.3244,1.3484 v 5.7796 c 0,1.9445 -0.9798,2.9425 -2.5975,2.9425 -1.6173,0 -2.5975,-1.0324 -2.5975,-3.0299 v -5.6922 c 0,-0.7528 -0.5851,-1.3484 -1.3255,-1.3484 -0.7392,0 -1.324,0.5956 -1.324,1.3484 v 5.763 c 0,3.6078 1.9776,5.447 5.2122,5.447 3.2339,0 5.2826,-1.8211 5.2826,-5.5348 v -5.6752 c 0,-0.7528 -0.5852,-1.3484 -1.3259,-1.3484 z m 19.9797,-0.0011 c -0.6532,0 -1.101,0.4383 -1.2735,0.9636 l -2.3917,7.5145 -2.4086,-7.4449 c -0.2061,-0.6475 -0.67,-1.0676 -1.3423,-1.0676 h -0.2057 c -0.6704,0 -1.1366,0.4379 -1.3424,1.0676 l -2.4085,7.4449 -2.3914,-7.5145 c -0.1709,-0.5601 -0.67,-0.9636 -1.2899,-0.9636 -0.74,0 -1.36,0.5613 -1.36,1.3144 0,0.1582 0.0524,0.3505 0.1037,0.5079 l 3.3719,9.6334 c 0.2417,0.6831 0.7392,1.1036 1.3764,1.1036 h 0.2745 c 0.6376,0 1.1198,-0.4023 1.3596,-1.1036 l 2.3749,-7.024 2.3745,7.024 c 0.2398,0.7013 0.7224,1.1036 1.3596,1.1036 h 0.2742 c 0.6371,0 1.1346,-0.4205 1.376,-1.1036 l 3.3722,-9.6334 c 0.0517,-0.1574 0.1041,-0.3679 0.1041,-0.5261 0,-0.7349 -0.5852,-1.2962 -1.3076,-1.2962 z m 11.8053,9.9671 h -5.4534 v -2.5749 h 4.5937 c 0.6532,0 1.1863,-0.5253 1.1863,-1.1902 0,-0.6661 -0.5331,-1.2092 -1.1863,-1.2092 h -4.5937 v -2.4868 h 5.3674 c 0.6543,0 1.1871,-0.526 1.1871,-1.1914 0,-0.6653 -0.5328,-1.2083 -1.1871,-1.2083 h -6.675 c -0.7388,0 -1.3243,0.5949 -1.3243,1.3484 v 9.5638 c 0,0.7531 0.5855,1.3488 1.3243,1.3488 h 6.761 c 0.6536,0 1.1875,-0.5257 1.1875,-1.1918 0,-0.6653 -0.5339,-1.2084 -1.1875,-1.2084 z"
         fill="#ffffff"
         id="path9"
         style="fill:#000000" />
      <path
         fill-rule="evenodd"
         clip-rule="evenodd"
         d="m 66.4274,1.47112 c -3.6871,-2.59896 -8.7447,-1.663658 -11.2975,2.08992 0,0 -13.7557,20.22346 -22.4319,32.97886 h 12.1399 c 4.767,0 9.227,-2.3743 11.9415,-6.365 L 68.4806,12.9728 C 71.033,9.21965 70.1132,4.06931 66.4274,1.47112 Z M 4.25305,1.04047 C 0.00919582,3.45995 -1.1794,8.99825 1.52172,12.9727 L 16.7869,35.4141 c 1.1251,1.6548 3.5287,1.6536 4.6526,-0.0023 l 4.1536,-6.1224 c 2.0373,-3.0024 2.035,-6.9761 -0.0053,-9.9762 L 15.0713,3.85256 C 12.657,0.303211 7.95231,-1.06957 4.25305,1.04047 Z M 42.4022,4.51724 36.9518,12.5501 c -1.1236,1.6559 -3.5268,1.6574 -4.6527,0.0027 L 26.8357,4.51995 C 25.5365,2.6095 26.8796,4.88381e-4 29.1612,4.88381e-4 h 10.9139 c 2.2808,0 3.6235,2.606311619 2.3271,4.516751619 z"
         fill="#e40046"
         id="path11" />
    </g>
  </g>
</svg>
