<svg xmlns="http://www.w3.org/2000/svg" width="148" height="130" viewBox="0 0 148 130">
    <title>Serfhos.com</title>
    <g fill="#24B2A0">
        <g transform="translate(8 3)" opacity="0.5">
            <polygon points="100.3 0.3 56.9 53.9 62.1 55.4 104.2 3.4"/>
            <path d="M127.8 89.5C127.9 87.1 124.5 78.1 76 65 68.2 62.9 60.4 61 53.2 59.3 51.3 58.9 49.5 58.5 47.8 58.1L0.8 116.2C3.1 116 5.4 115.8 7.7 115.6 115.1 106.5 127.6 94.4 127.8 89.5L127.8 89.5Z"/>
        </g>
        <path d="M74.7 60.4C74.8 60.4 74.9 60.4 74.9 60.5 76.4 60.9 78 61.3 79.6 61.7 79.9 61.8 80.3 61.9 80.6 62 82.2 62.4 83.7 62.8 85.3 63.2 106.7 69 134.4 77.7 139.9 88.6 140.6 90 141 91.4 140.9 92.8 140.6 99 133.3 104.1 118.1 108.6 115.5 109.4 112.7 110.1 109.6 110.9 88.4 116 48.6 121.2 4.4 124.9L4.4 124.9 0.6 129.6 6.4 129.2C101.6 122 146.6 111.1 147.8 94.7 148.5 85.2 134.8 75.6 106 65.5 90.5 60.1 75.1 56 68.1 54.3L109 3.8 109 3.8 105.1 0.7 59.3 56.7C61.1 57.1 62.9 57.5 64.7 57.9L64.7 57.9 64.7 57.9"/>
    </g>
</svg>
